<svg width="900" height="500" viewBox="0 0 900 500" xmlns="http://www.w3.org/2000/svg" font-family="system-ui,-apple-system,sans-serif">
<!-- background -->
<rect width="900" height="500" fill="#f0f4f8"/>

<!-- header card -->
<rect x="16" y="16" width="868" height="64" fill="#ffffff" rx="10" stroke="#e2e8f0" stroke-width="1"/>
<text x="32" y="56" font-size="19" fill="#1A3A5C" font-weight="700">🎯 Job Match Dashboard</text>
<rect x="710" y="26" width="158" height="22" fill="#dbeafe" rx="12"/>
<text x="789" y="41" font-size="11" fill="#1d4ed8" font-weight="600" text-anchor="middle">📅 Daily · auto-updated</text>

<!-- subtitle -->
<text x="20" y="101" font-size="12" fill="#888">Resume Library</text>

<!-- tab bar -->
<rect x="16" y="112" width="868" height="40" fill="#ffffff" rx="8" stroke="#e2e8f0" stroke-width="1"/>
<text x="67" y="136" font-size="12.5" fill="#64748b" text-anchor="middle">Matches</text>
<text x="194" y="136" font-size="12.5" fill="#64748b" text-anchor="middle">Job Search Log</text>
<rect x="277" y="116" width="87" height="32" fill="#1A3A5C" rx="6"/>
<text x="320" y="136" font-size="12.5" fill="#fff" font-weight="600" text-anchor="middle">Resumes</text>
<text x="429" y="136" font-size="12.5" fill="#64748b" text-anchor="middle">⚙ Settings</text>
<rect x="724" y="118" width="152" height="30" fill="#1A3A5C" rx="6"/>
<text x="800" y="137" font-size="12" fill="white" font-weight="600" text-anchor="middle">+ Add Resume</text>

<!-- active resumes header -->
<rect x="16" y="158" width="868" height="30" fill="#f8fafc" rx="6" stroke="#e2e8f0" stroke-width="1"/>
<text x="30" y="177" font-size="12" fill="#1A3A5C" font-weight="700">Active Resumes</text>

<!-- active row 1: master docx -->
<rect x="16" y="190" width="868" height="44" fill="white" stroke="#e2e8f0" stroke-width="1"/>
<text x="32" y="208" font-size="14" fill="#1e293b">📄</text>
<text x="56" y="208" font-size="12.5" fill="#1e293b" font-weight="600">YourName_resume_Master.docx</text>
<text x="56" y="224" font-size="11" fill="#64748b">Master Template</text>
<text x="548" y="216" font-size="11" fill="#94a3b8">Jun 15</text>
<rect x="610" y="202" width="44" height="20" fill="#dbeafe" rx="10"/>
<text x="632" y="216" font-size="11" fill="#1d4ed8" font-weight="600" text-anchor="middle">Base</text>
<rect x="776" y="200" width="46" height="24" fill="white" rx="5" stroke="#e2e8f0" stroke-width="1"/>
<text x="799" y="216" font-size="11" fill="#475569" text-anchor="middle">Open</text>
<rect x="826" y="200" width="50" height="24" fill="white" rx="5" stroke="#fca5a5" stroke-width="1"/>
<text x="851" y="216" font-size="11" fill="#dc2626" text-anchor="middle">Delete</text>

<!-- active row 2: master pdf -->
<rect x="16" y="234" width="868" height="44" fill="#f9fafb" stroke="#e2e8f0" stroke-width="1"/>
<text x="32" y="252" font-size="14" fill="#1e293b">📄</text>
<text x="56" y="252" font-size="12.5" fill="#1e293b" font-weight="600">YourName_resume_Master.pdf</text>
<text x="56" y="268" font-size="11" fill="#64748b">Master Template (PDF)</text>
<text x="548" y="260" font-size="11" fill="#94a3b8">Jun 15</text>
<rect x="610" y="246" width="44" height="20" fill="#dbeafe" rx="10"/>
<text x="632" y="260" font-size="11" fill="#1d4ed8" font-weight="600" text-anchor="middle">Base</text>
<rect x="776" y="244" width="46" height="24" fill="white" rx="5" stroke="#e2e8f0" stroke-width="1"/>
<text x="799" y="260" font-size="11" fill="#475569" text-anchor="middle">Open</text>
<rect x="826" y="244" width="50" height="24" fill="white" rx="5" stroke="#fca5a5" stroke-width="1"/>
<text x="851" y="260" font-size="11" fill="#dc2626" text-anchor="middle">Delete</text>

<!-- archived resumes header -->
<rect x="16" y="286" width="868" height="30" fill="#f8fafc" rx="6" stroke="#e2e8f0" stroke-width="1"/>
<text x="30" y="305" font-size="12" fill="#64748b" font-weight="700">Archived Resumes</text>
<text x="196" y="305" font-size="11" fill="#94a3b8">(3 files)</text>

<!-- archived row 1 -->
<rect x="16" y="318" width="868" height="44" fill="white" stroke="#e2e8f0" stroke-width="1"/>
<text x="32" y="336" font-size="14" fill="#1e293b">📄</text>
<text x="56" y="336" font-size="12" fill="#374151" font-weight="500">YourName_resume_MeridianTech.docx</text>
<text x="56" y="352" font-size="11" fill="#94a3b8">Meridian Technologies · Senior SDET</text>
<text x="548" y="344" font-size="11" fill="#94a3b8">Jun 23</text>
<rect x="610" y="330" width="62" height="20" fill="#fef9c3" rx="10"/>
<text x="641" y="344" font-size="11" fill="#854d0e" font-weight="600" text-anchor="middle">Tailored</text>
<rect x="776" y="328" width="46" height="24" fill="white" rx="5" stroke="#e2e8f0" stroke-width="1"/>
<text x="799" y="344" font-size="11" fill="#475569" text-anchor="middle">Open</text>
<rect x="826" y="328" width="50" height="24" fill="white" rx="5" stroke="#fca5a5" stroke-width="1"/>
<text x="851" y="344" font-size="11" fill="#dc2626" text-anchor="middle">Delete</text>

<!-- archived row 2 -->
<rect x="16" y="362" width="868" height="44" fill="#f9fafb" stroke="#e2e8f0" stroke-width="1"/>
<text x="32" y="380" font-size="14" fill="#1e293b">📄</text>
<text x="56" y="380" font-size="12" fill="#374151" font-weight="500">YourName_resume_SkylineSoftware.docx</text>
<text x="56" y="396" font-size="11" fill="#94a3b8">Skyline Software · Senior QA Engineer</text>
<text x="548" y="388" font-size="11" fill="#94a3b8">Jun 22</text>
<rect x="610" y="374" width="62" height="20" fill="#fef9c3" rx="10"/>
<text x="641" y="388" font-size="11" fill="#854d0e" font-weight="600" text-anchor="middle">Tailored</text>
<rect x="776" y="372" width="46" height="24" fill="white" rx="5" stroke="#e2e8f0" stroke-width="1"/>
<text x="799" y="388" font-size="11" fill="#475569" text-anchor="middle">Open</text>
<rect x="826" y="372" width="50" height="24" fill="white" rx="5" stroke="#fca5a5" stroke-width="1"/>
<text x="851" y="388" font-size="11" fill="#dc2626" text-anchor="middle">Delete</text>

<!-- archived row 3 -->
<rect x="16" y="406" width="868" height="44" fill="white" stroke="#e2e8f0" stroke-width="1"/>
<text x="32" y="424" font-size="14" fill="#1e293b">📄</text>
<text x="56" y="424" font-size="12" fill="#374151" font-weight="500">YourName_resume_CascadeSystems.pdf</text>
<text x="56" y="440" font-size="11" fill="#94a3b8">Cascade Systems · QA Engineer III</text>
<text x="548" y="432" font-size="11" fill="#94a3b8">Jun 21</text>
<rect x="610" y="418" width="62" height="20" fill="#fef9c3" rx="10"/>
<text x="641" y="432" font-size="11" fill="#854d0e" font-weight="600" text-anchor="middle">Tailored</text>
<rect x="776" y="416" width="46" height="24" fill="white" rx="5" stroke="#e2e8f0" stroke-width="1"/>
<text x="799" y="432" font-size="11" fill="#475569" text-anchor="middle">Open</text>
<rect x="826" y="416" width="50" height="24" fill="white" rx="5" stroke="#fca5a5" stroke-width="1"/>
<text x="851" y="432" font-size="11" fill="#dc2626" text-anchor="middle">Delete</text>
</svg>
