<svg width="900" height="570" viewBox="0 0 900 570" xmlns="http://www.w3.org/2000/svg" font-family="system-ui,-apple-system,sans-serif">
<!-- background -->
<rect width="900" height="570" fill="#f0f4f8"/>

<!-- header card -->
<rect x="16" y="16" width="868" height="64" fill="#ffffff" rx="10" stroke="#e2e8f0" stroke-width="1"/>
<text x="32" y="56" font-size="19" fill="#1A3A5C" font-weight="700">🎯 Job Match Dashboard</text>
<rect x="710" y="26" width="158" height="22" fill="#dbeafe" rx="12"/>
<text x="789" y="41" font-size="11" fill="#1d4ed8" font-weight="600" text-anchor="middle">📅 Daily · auto-updated</text>

<!-- subtitle -->
<text x="20" y="101" font-size="12" fill="#888">9 matched roles from Dice · Indeed · ZipRecruiter</text>

<!-- tab bar -->
<rect x="16" y="112" width="868" height="40" fill="#ffffff" rx="8" stroke="#e2e8f0" stroke-width="1"/>
<rect x="24" y="116" width="87" height="32" fill="#1A3A5C" rx="6"/>
<text x="67" y="136" font-size="12.5" fill="#fff" font-weight="600" text-anchor="middle">Matches</text>
<text x="194" y="136" font-size="12.5" fill="#64748b" text-anchor="middle">Job Search Log</text>
<text x="320" y="136" font-size="12.5" fill="#64748b" text-anchor="middle">Resumes</text>
<text x="429" y="136" font-size="12.5" fill="#64748b" text-anchor="middle">⚙ Settings</text>
<rect x="724" y="118" width="150" height="30" fill="#fff" rx="6" stroke="#94a3b8" stroke-width="1"/>
<text x="799" y="137" font-size="12" fill="#475569" text-anchor="middle">🔍 Live Search</text>

<!-- source counts bar -->
<rect x="16" y="158" width="868" height="34" fill="#fff" rx="8" stroke="#e2e8f0" stroke-width="1"/>
<text x="32" y="179" font-size="11" fill="#1d4ed8" font-weight="600">Dice</text>
<text x="57" y="179" font-size="11" fill="#475569"> 4</text>
<text x="78" y="179" font-size="11" fill="#cbd5e1">·</text>
<text x="90" y="179" font-size="11" fill="#065f46" font-weight="600">Indeed</text>
<text x="128" y="179" font-size="11" fill="#475569"> 2</text>
<text x="148" y="179" font-size="11" fill="#cbd5e1">·</text>
<text x="160" y="179" font-size="11" fill="#6d28d9" font-weight="600">ZipRecruiter</text>
<text x="228" y="179" font-size="11" fill="#475569"> 3</text>

<!-- table header -->
<rect x="16" y="198" width="868" height="30" fill="#f8fafc" stroke="#e2e8f0" stroke-width="1"/>
<text x="36" y="217" font-size="11" fill="#64748b" font-weight="600">Score</text>
<text x="108" y="217" font-size="11" fill="#64748b" font-weight="600">Role</text>
<text x="358" y="217" font-size="11" fill="#64748b" font-weight="600">Type</text>
<text x="448" y="217" font-size="11" fill="#64748b" font-weight="600">Salary</text>
<text x="588" y="217" font-size="11" fill="#64748b" font-weight="600">Posted</text>

<!-- row 1 -->
<rect x="16" y="228" width="868" height="50" fill="#fff" stroke="#e2e8f0" stroke-width="1"/>
<circle cx="52" cy="253" r="16" fill="#15803d"/>
<text x="52" y="258" font-size="13" fill="white" font-weight="700" text-anchor="middle">9</text>
<text x="108" y="248" font-size="12.5" fill="#1e293b" font-weight="600">Senior SDET – Backend Platform</text>
<text x="108" y="264" font-size="11" fill="#64748b">Meridian Technologies</text>
<rect x="340" y="241" width="62" height="20" fill="#dcfce7" rx="10"/>
<text x="371" y="255" font-size="11" fill="#15803d" font-weight="600" text-anchor="middle">Remote</text>
<text x="418" y="255" font-size="12" fill="#1e293b" font-weight="500">$140k–$160k</text>
<text x="570" y="255" font-size="12" fill="#64748b">Today</text>
<rect x="660" y="237" width="52" height="28" fill="#1A3A5C" rx="6"/>
<text x="686" y="255" font-size="11" fill="white" font-weight="600" text-anchor="middle">Apply</text>
<rect x="716" y="237" width="52" height="28" fill="#f0f9ff" rx="6" stroke="#bfdbfe" stroke-width="1"/>
<text x="742" y="255" font-size="11" fill="#1d4ed8" font-weight="600" text-anchor="middle">Tailor</text>
<rect x="772" y="237" width="28" height="28" fill="#fee2e2" rx="6"/>
<text x="786" y="255" font-size="12" fill="#dc2626" text-anchor="middle">✕</text>

<!-- row 2 -->
<rect x="16" y="278" width="868" height="50" fill="#f9fafb" stroke="#e2e8f0" stroke-width="1"/>
<circle cx="52" cy="303" r="16" fill="#16a34a"/>
<text x="52" y="308" font-size="13" fill="white" font-weight="700" text-anchor="middle">8</text>
<text x="108" y="298" font-size="12.5" fill="#1e293b" font-weight="600">Senior QA Engineer – Automation</text>
<text x="108" y="314" font-size="11" fill="#64748b">Skyline Software</text>
<rect x="340" y="291" width="62" height="20" fill="#dcfce7" rx="10"/>
<text x="371" y="305" font-size="11" fill="#15803d" font-weight="600" text-anchor="middle">Remote</text>
<text x="418" y="305" font-size="12" fill="#1e293b" font-weight="500">$120k–$140k</text>
<text x="570" y="305" font-size="12" fill="#64748b">1d ago</text>
<rect x="660" y="287" width="52" height="28" fill="#1A3A5C" rx="6"/>
<text x="686" y="305" font-size="11" fill="white" font-weight="600" text-anchor="middle">Apply</text>
<rect x="716" y="287" width="52" height="28" fill="#f0f9ff" rx="6" stroke="#bfdbfe" stroke-width="1"/>
<text x="742" y="305" font-size="11" fill="#1d4ed8" font-weight="600" text-anchor="middle">Tailor</text>
<rect x="772" y="287" width="28" height="28" fill="#fee2e2" rx="6"/>
<text x="786" y="305" font-size="12" fill="#dc2626" text-anchor="middle">✕</text>

<!-- row 3 -->
<rect x="16" y="328" width="868" height="50" fill="#fff" stroke="#e2e8f0" stroke-width="1"/>
<circle cx="52" cy="353" r="16" fill="#16a34a"/>
<text x="52" y="358" font-size="13" fill="white" font-weight="700" text-anchor="middle">8</text>
<text x="108" y="348" font-size="12.5" fill="#1e293b" font-weight="600">QA Engineer III – Test Platform</text>
<text x="108" y="364" font-size="11" fill="#64748b">Cascade Systems</text>
<rect x="340" y="341" width="62" height="20" fill="#dcfce7" rx="10"/>
<text x="371" y="355" font-size="11" fill="#15803d" font-weight="600" text-anchor="middle">Remote</text>
<text x="418" y="355" font-size="12" fill="#1e293b" font-weight="500">$115k–$130k</text>
<text x="570" y="355" font-size="12" fill="#64748b">2d ago</text>
<rect x="660" y="337" width="52" height="28" fill="#1A3A5C" rx="6"/>
<text x="686" y="355" font-size="11" fill="white" font-weight="600" text-anchor="middle">Apply</text>
<rect x="716" y="337" width="52" height="28" fill="#f0f9ff" rx="6" stroke="#bfdbfe" stroke-width="1"/>
<text x="742" y="355" font-size="11" fill="#1d4ed8" font-weight="600" text-anchor="middle">Tailor</text>
<rect x="772" y="337" width="28" height="28" fill="#fee2e2" rx="6"/>
<text x="786" y="355" font-size="12" fill="#dc2626" text-anchor="middle">✕</text>

<!-- row 4 -->
<rect x="16" y="378" width="868" height="50" fill="#f9fafb" stroke="#e2e8f0" stroke-width="1"/>
<circle cx="52" cy="403" r="16" fill="#2563eb"/>
<text x="52" y="408" font-size="13" fill="white" font-weight="700" text-anchor="middle">7</text>
<text x="108" y="398" font-size="12.5" fill="#1e293b" font-weight="600">Staff Software Engineer in Test</text>
<text x="108" y="414" font-size="11" fill="#64748b">Apex Cloud</text>
<rect x="340" y="391" width="62" height="20" fill="#dcfce7" rx="10"/>
<text x="371" y="405" font-size="11" fill="#15803d" font-weight="600" text-anchor="middle">Remote</text>
<text x="418" y="405" font-size="12" fill="#1e293b" font-weight="500">$130k–$155k</text>
<text x="570" y="405" font-size="12" fill="#64748b">Today</text>
<rect x="660" y="387" width="52" height="28" fill="#1A3A5C" rx="6"/>
<text x="686" y="405" font-size="11" fill="white" font-weight="600" text-anchor="middle">Apply</text>
<rect x="716" y="387" width="52" height="28" fill="#f0f9ff" rx="6" stroke="#bfdbfe" stroke-width="1"/>
<text x="742" y="405" font-size="11" fill="#1d4ed8" font-weight="600" text-anchor="middle">Tailor</text>
<rect x="772" y="387" width="28" height="28" fill="#fee2e2" rx="6"/>
<text x="786" y="405" font-size="12" fill="#dc2626" text-anchor="middle">✕</text>

<!-- row 5 -->
<rect x="16" y="428" width="868" height="50" fill="#fff" stroke="#e2e8f0" stroke-width="1"/>
<circle cx="52" cy="453" r="16" fill="#2563eb"/>
<text x="52" y="458" font-size="13" fill="white" font-weight="700" text-anchor="middle">7</text>
<text x="108" y="448" font-size="12.5" fill="#1e293b" font-weight="600">Test Automation Engineer</text>
<text x="108" y="464" font-size="11" fill="#64748b">DataBridge Inc.</text>
<rect x="340" y="441" width="58" height="20" fill="#fef9c3" rx="10"/>
<text x="369" y="455" font-size="11" fill="#854d0e" font-weight="600" text-anchor="middle">Hybrid</text>
<text x="418" y="455" font-size="12" fill="#1e293b" font-weight="500">$100k–$125k</text>
<text x="570" y="455" font-size="12" fill="#64748b">3d ago</text>
<rect x="660" y="437" width="52" height="28" fill="#1A3A5C" rx="6"/>
<text x="686" y="455" font-size="11" fill="white" font-weight="600" text-anchor="middle">Apply</text>
<rect x="716" y="437" width="52" height="28" fill="#f0f9ff" rx="6" stroke="#bfdbfe" stroke-width="1"/>
<text x="742" y="455" font-size="11" fill="#1d4ed8" font-weight="600" text-anchor="middle">Tailor</text>
<rect x="772" y="437" width="28" height="28" fill="#fee2e2" rx="6"/>
<text x="786" y="455" font-size="12" fill="#dc2626" text-anchor="middle">✕</text>

<!-- row 6 -->
<rect x="16" y="478" width="868" height="50" fill="#f9fafb" stroke="#e2e8f0" stroke-width="1"/>
<circle cx="52" cy="503" r="16" fill="#d97706"/>
<text x="52" y="508" font-size="13" fill="white" font-weight="700" text-anchor="middle">6</text>
<text x="108" y="498" font-size="12.5" fill="#1e293b" font-weight="600">Senior QA Lead – Infrastructure</text>
<text x="108" y="514" font-size="11" fill="#64748b">Harbor Analytics</text>
<rect x="340" y="491" width="62" height="20" fill="#dcfce7" rx="10"/>
<text x="371" y="505" font-size="11" fill="#15803d" font-weight="600" text-anchor="middle">Remote</text>
<text x="418" y="505" font-size="12" fill="#1e293b" font-weight="500">$95k–$115k</text>
<text x="570" y="505" font-size="12" fill="#64748b">4d ago</text>
<rect x="660" y="487" width="52" height="28" fill="#1A3A5C" rx="6"/>
<text x="686" y="505" font-size="11" fill="white" font-weight="600" text-anchor="middle">Apply</text>
<rect x="716" y="487" width="52" height="28" fill="#f0f9ff" rx="6" stroke="#bfdbfe" stroke-width="1"/>
<text x="742" y="505" font-size="11" fill="#1d4ed8" font-weight="600" text-anchor="middle">Tailor</text>
<rect x="772" y="487" width="28" height="28" fill="#fee2e2" rx="6"/>
<text x="786" y="505" font-size="12" fill="#dc2626" text-anchor="middle">✕</text>
</svg>
