<svg width="900" height="520" viewBox="0 0 900 520" xmlns="http://www.w3.org/2000/svg" font-family="system-ui,-apple-system,sans-serif">
<!-- background -->
<rect width="900" height="520" fill="#f0f4f8"/>

<!-- header card -->
<rect x="16" y="16" width="868" height="64" fill="#ffffff" rx="10" stroke="#e2e8f0" stroke-width="1"/>
<text x="32" y="56" font-size="19" fill="#1A3A5C" font-weight="700">🎯 Job Match Dashboard</text>
<rect x="710" y="26" width="158" height="22" fill="#dbeafe" rx="12"/>
<text x="789" y="41" font-size="11" fill="#1d4ed8" font-weight="600" text-anchor="middle">📅 Daily · auto-updated</text>

<!-- subtitle -->
<text x="20" y="101" font-size="12" fill="#888">8 activities logged</text>

<!-- tab bar -->
<rect x="16" y="112" width="868" height="40" fill="#ffffff" rx="8" stroke="#e2e8f0" stroke-width="1"/>
<text x="67" y="136" font-size="12.5" fill="#64748b" text-anchor="middle">Matches</text>
<rect x="119" y="116" width="150" height="32" fill="#1A3A5C" rx="6"/>
<text x="194" y="136" font-size="12.5" fill="#fff" font-weight="600" text-anchor="middle">Job Search Log</text>
<text x="320" y="136" font-size="12.5" fill="#64748b" text-anchor="middle">Resumes</text>
<text x="429" y="136" font-size="12.5" fill="#64748b" text-anchor="middle">⚙ Settings</text>
<rect x="724" y="118" width="152" height="30" fill="#1A3A5C" rx="6"/>
<text x="800" y="137" font-size="12" fill="white" font-weight="600" text-anchor="middle">+ Log Activity</text>

<!-- weekly goal bar -->
<rect x="16" y="158" width="868" height="44" fill="white" rx="8" stroke="#e2e8f0" stroke-width="1"/>
<text x="32" y="183" font-size="11" fill="#64748b" font-weight="600">Weekly Goal</text>
<rect x="134" y="163" width="22" height="22" fill="#1A3A5C" rx="4"/>
<text x="145" y="179" font-size="11" fill="white" text-anchor="middle">✓</text>
<rect x="162" y="163" width="22" height="22" fill="#1A3A5C" rx="4"/>
<text x="173" y="179" font-size="11" fill="white" text-anchor="middle">✓</text>
<rect x="190" y="163" width="22" height="22" fill="#1A3A5C" rx="4"/>
<text x="201" y="179" font-size="11" fill="white" text-anchor="middle">✓</text>
<rect x="218" y="163" width="22" height="22" fill="#1A3A5C" rx="4"/>
<text x="229" y="179" font-size="11" fill="white" text-anchor="middle">✓</text>
<rect x="246" y="163" width="22" height="22" fill="#e2e8f0" rx="4"/>
<text x="282" y="183" font-size="11" fill="#475569">4 / 5 this week</text>

<!-- table header -->
<rect x="16" y="208" width="868" height="30" fill="#f8fafc" stroke="#e2e8f0" stroke-width="1"/>
<text x="32" y="227" font-size="11" fill="#64748b" font-weight="600">Date</text>
<text x="110" y="227" font-size="11" fill="#64748b" font-weight="600">Type</text>
<text x="228" y="227" font-size="11" fill="#64748b" font-weight="600">Company</text>
<text x="390" y="227" font-size="11" fill="#64748b" font-weight="600">Role</text>
<text x="530" y="227" font-size="11" fill="#64748b" font-weight="600">Notes</text>

<!-- row 1 -->
<rect x="16" y="238" width="868" height="46" fill="#fff" stroke="#e2e8f0" stroke-width="1"/>
<text x="32" y="265" font-size="12" fill="#475569">Jun 25</text>
<rect x="110" y="252" width="98" height="20" fill="#dbeafe" rx="10"/>
<text x="159" y="266" font-size="11" fill="#1d4ed8" font-weight="600" text-anchor="middle">Application</text>
<text x="228" y="265" font-size="12" fill="#1e293b" font-weight="500">Meridian Technologies</text>
<text x="390" y="265" font-size="12" fill="#64748b">Senior SDET – Backend</text>
<text x="530" y="265" font-size="11" fill="#64748b">Applied via Dice. High priority.</text>

<!-- row 2 -->
<rect x="16" y="284" width="868" height="46" fill="#f9fafb" stroke="#e2e8f0" stroke-width="1"/>
<text x="32" y="311" font-size="12" fill="#475569">Jun 24</text>
<rect x="110" y="298" width="80" height="20" fill="#dcfce7" rx="10"/>
<text x="150" y="312" font-size="11" fill="#15803d" font-weight="600" text-anchor="middle">Interview</text>
<text x="228" y="311" font-size="12" fill="#1e293b" font-weight="500">Skyline Software</text>
<text x="390" y="311" font-size="12" fill="#64748b">Senior QA Engineer</text>
<text x="530" y="311" font-size="11" fill="#64748b">Phone screen scheduled for Jun 28.</text>

<!-- row 3 -->
<rect x="16" y="330" width="868" height="46" fill="#fff" stroke="#e2e8f0" stroke-width="1"/>
<text x="32" y="357" font-size="12" fill="#475569">Jun 23</text>
<rect x="110" y="344" width="98" height="20" fill="#dbeafe" rx="10"/>
<text x="159" y="358" font-size="11" fill="#1d4ed8" font-weight="600" text-anchor="middle">Application</text>
<text x="228" y="357" font-size="12" fill="#1e293b" font-weight="500">Cascade Systems</text>
<text x="390" y="357" font-size="12" fill="#64748b">QA Engineer III</text>
<text x="530" y="357" font-size="11" fill="#64748b">Submitted tailored resume. Awaiting response.</text>

<!-- row 4 -->
<rect x="16" y="376" width="868" height="46" fill="#f9fafb" stroke="#e2e8f0" stroke-width="1"/>
<text x="32" y="403" font-size="12" fill="#475569">Jun 22</text>
<rect x="110" y="390" width="88" height="20" fill="#f3e8ff" rx="10"/>
<text x="154" y="404" font-size="11" fill="#6d28d9" font-weight="600" text-anchor="middle">Networking</text>
<text x="228" y="403" font-size="12" fill="#1e293b" font-weight="500">Apex Cloud</text>
<text x="390" y="403" font-size="12" fill="#64748b">—</text>
<text x="530" y="403" font-size="11" fill="#64748b">Connected with eng manager on LinkedIn.</text>

<!-- row 5 -->
<rect x="16" y="422" width="868" height="46" fill="#fff" stroke="#e2e8f0" stroke-width="1"/>
<text x="32" y="449" font-size="12" fill="#475569">Jun 21</text>
<rect x="110" y="436" width="98" height="20" fill="#dbeafe" rx="10"/>
<text x="159" y="450" font-size="11" fill="#1d4ed8" font-weight="600" text-anchor="middle">Application</text>
<text x="228" y="449" font-size="12" fill="#1e293b" font-weight="500">DataBridge Inc.</text>
<text x="390" y="449" font-size="12" fill="#64748b">Test Automation Engineer</text>
<text x="530" y="449" font-size="11" fill="#64748b">Applied via ZipRecruiter. No response yet.</text>
</svg>
